<?xml version="1.0" standalone="no"?>
<!DOCTYPE svg PUBLIC "-//W3C//DTD SVG 20010904//EN"
 "http://www.w3.org/TR/2001/REC-SVG-20010904/DTD/svg10.dtd">
<svg version="1.0" xmlns="http://www.w3.org/2000/svg"
 width="500.000000pt" height="500.000000pt" viewBox="0 0 500.000000 500.000000"
 preserveAspectRatio="xMidYMid meet">
<metadata>
Created by potrace 1.11, written by Peter Selinger 2001-2013
</metadata>
<g transform="translate(0.000000,500.000000) scale(0.100000,-0.100000)"
fill="#000000" stroke="none">
<path d="M2467 4664 c-1 -1 -54 -4 -117 -8 -116 -5 -190 -16 -290 -41 -30 -8
-71 -17 -90 -20 -94 -16 -344 -114 -485 -190 -243 -131 -493 -338 -655 -542
-88 -111 -228 -320 -235 -353 0 -3 -11 -25 -24 -50 -86 -163 -167 -414 -197
-605 -3 -16 -7 -36 -9 -43 -18 -52 -26 -400 -12 -542 8 -88 13 -121 34 -215 8
-38 17 -81 20 -95 3 -14 20 -72 38 -130 120 -378 339 -710 650 -985 47 -42
204 -158 269 -199 84 -54 275 -147 386 -189 230 -88 498 -138 742 -139 92 0
287 10 298 17 3 2 34 6 70 10 36 4 108 18 160 32 52 13 105 26 116 29 83 17
395 153 489 214 17 11 46 29 65 40 37 21 54 33 160 115 128 98 291 260 375
372 16 21 32 40 35 43 7 6 110 163 138 210 65 110 181 374 197 450 2 8 13 49
24 90 22 78 45 206 58 325 15 136 8 471 -12 545 -2 8 -6 35 -9 60 -8 62 -12
80 -36 168 -12 42 -23 85 -25 95 -10 46 -82 223 -134 327 -127 255 -319 501
-531 681 -83 70 -186 149 -196 149 -4 0 -15 7 -24 15 -40 36 -223 134 -374
200 -70 31 -210 75 -301 96 -49 11 -108 24 -130 29 -72 16 -106 20 -229 26
-188 9 -207 10 -209 8z m228 -685 c39 -5 85 -12 104 -14 18 -2 41 -7 51 -10
10 -3 27 -8 38 -10 145 -28 365 -130 527 -244 74 -52 295 -258 295 -274 0 -5
9 -18 21 -30 28 -30 90 -123 125 -188 16 -30 32 -55 37 -57 4 -2 7 -8 7 -13 0
-6 12 -36 26 -67 58 -126 102 -286 121 -437 10 -75 10 -300 1 -380 -16 -141
-66 -319 -123 -443 -14 -29 -25 -54 -25 -57 0 -15 -119 -199 -173 -268 -94
-119 -243 -257 -347 -322 -25 -15 -47 -31 -50 -34 -3 -4 -34 -22 -70 -40 -36
-19 -72 -38 -80 -42 -18 -10 -82 -35 -93 -37 -4 -1 -20 -8 -36 -17 -28 -14
-215 -66 -291 -80 -55 -11 -399 -14 -455 -5 -146 24 -302 68 -377 106 -27 14
-48 22 -48 19 0 -18 -286 159 -359 221 -90 78 -241 241 -241 262 0 6 -4 12 -9
12 -9 0 -104 147 -136 210 -59 119 -126 309 -114 322 1 2 -2 12 -8 23 -6 11
-14 36 -17 55 -3 19 -8 46 -11 60 -17 72 -23 340 -10 422 4 23 9 57 11 73 8
50 65 269 74 280 4 5 17 36 28 67 33 88 144 288 172 308 4 3 11 12 16 22 23
42 157 183 249 263 59 51 231 162 315 202 123 59 295 115 395 129 28 4 73 10
100 14 75 11 281 11 360 -1z"/>
<path d="M2470 3109 c-80 -6 -153 -21 -189 -38 -136 -68 -194 -112 -267 -206
-144 -187 -161 -482 -40 -690 15 -25 55 -75 88 -111 236 -252 640 -261 884
-20 81 80 128 153 156 241 28 88 38 158 33 235 -4 65 -11 102 -42 205 -6 20
-23 50 -61 115 -12 19 -52 65 -90 102 -127 121 -293 180 -472 167z m-353 -776
c20 -23 63 -60 97 -82 93 -60 115 -82 127 -126 5 -22 21 -63 35 -91 29 -61 30
-74 7 -74 -97 2 -233 97 -310 217 -9 15 -20 30 -23 33 -5 5 -16 33 -52 130
-11 30 -23 82 -25 115 l-6 60 57 -70 c32 -38 73 -89 93 -112z m443 -208 c111
-12 197 -59 188 -103 -5 -24 -50 -51 -98 -57 -24 -4 -48 -9 -52 -11 -4 -3 -27
-7 -50 -10 -23 -3 -44 -6 -47 -7 -3 0 -16 2 -27 6 -26 9 -44 70 -44 146 l0 49
43 -4 c23 -2 62 -6 87 -9z"/>
</g>
</svg>
