<?xml version="1.0" standalone="no"?>
<!DOCTYPE svg PUBLIC "-//W3C//DTD SVG 20010904//EN"
 "http://www.w3.org/TR/2001/REC-SVG-20010904/DTD/svg10.dtd">
<svg version="1.0" xmlns="http://www.w3.org/2000/svg"
 width="1080.000000pt" height="1080.000000pt" viewBox="0 0 1080.000000 1080.000000"
 preserveAspectRatio="xMidYMid meet">
<metadata>
Created by potrace 1.11, written by Peter Selinger 2001-2013
</metadata>
<g transform="translate(0.000000,1080.000000) scale(0.100000,-0.100000)"
fill="#000000" stroke="none">
<path d="M5110 10063 c-439 -41 -701 -90 -1043 -193 -1199 -362 -2220 -1214
-2804 -2340 -221 -426 -387 -926 -462 -1400 -45 -278 -55 -414 -55 -730 0
-367 14 -535 73 -880 68 -392 243 -905 439 -1280 101 -194 285 -498 358 -590
7 -8 43 -55 80 -105 146 -196 340 -411 520 -578 164 -153 175 -162 303 -263
264 -208 495 -356 786 -504 215 -109 277 -137 472 -210 363 -138 716 -223
1144 -277 202 -25 830 -25 1029 0 735 93 1364 310 1955 676 130 80 374 255
501 359 628 514 1120 1192 1409 1942 321 836 398 1746 220 2625 -267 1314
-1089 2455 -2255 3130 -600 347 -1288 561 -1979 615 -122 9 -604 12 -691 3z
m685 -1458 c664 -77 1281 -340 1785 -760 447 -372 797 -880 1001 -1450 83
-232 142 -492 171 -746 17 -148 17 -590 0 -738 -64 -563 -271 -1111 -590
-1556 -130 -182 -200 -264 -362 -426 -418 -420 -876 -694 -1434 -858 -489
-144 -1029 -170 -1556 -75 -393 71 -835 244 -1163 455 -37 24 -88 57 -114 73
-73 46 -232 173 -357 285 -507 452 -880 1107 -1021 1790 -53 257 -60 335 -60
681 0 332 7 421 51 640 192 961 772 1771 1619 2262 177 103 509 248 668 292
29 8 93 26 142 40 116 32 329 73 475 90 162 19 581 20 745 1z"/>
<path d="M5210 6700 c-137 -25 -260 -59 -260 -72 0 -4 -6 -8 -14 -8 -24 0
-146 -62 -140 -71 3 -5 -4 -9 -16 -9 -37 0 -179 -98 -159 -110 8 -6 8 -9 0
-14 -6 -4 -11 -2 -11 3 0 20 -16 11 -66 -34 -41 -38 -47 -47 -34 -56 12 -9 12
-10 -4 -5 -14 5 -31 -7 -67 -45 -27 -29 -49 -55 -49 -59 0 -3 -11 -17 -25 -30
-14 -13 -23 -26 -20 -28 2 -3 -9 -20 -25 -38 -16 -18 -36 -50 -46 -70 -15 -30
-15 -37 -3 -46 10 -7 9 -8 -7 -4 -18 5 -24 -4 -53 -76 -18 -46 -39 -97 -47
-113 -20 -47 -35 -122 -27 -141 4 -11 3 -15 -4 -11 -19 12 -36 -129 -36 -298
0 -146 3 -172 32 -290 17 -71 38 -143 45 -160 45 -97 66 -146 66 -151 0 -5 82
-137 90 -144 3 -3 14 -18 24 -34 54 -85 225 -251 321 -312 17 -10 32 -21 35
-24 21 -22 199 -106 275 -131 39 -12 80 -27 92 -32 13 -6 26 -7 30 -4 3 4 11
3 18 -3 23 -19 256 -42 365 -36 161 9 229 22 360 68 47 16 100 35 118 41 17 6
32 14 32 19 0 4 7 8 16 8 8 0 13 3 11 8 -3 4 5 8 18 8 22 2 105 51 167 98 14
12 41 32 60 45 78 58 251 248 243 268 -2 8 -1 12 3 9 10 -6 30 18 55 64 14 27
15 35 5 43 -10 7 -9 8 3 4 10 -3 22 9 38 42 13 25 29 58 36 72 25 47 66 180
59 191 -4 6 -3 8 3 5 9 -6 20 46 41 183 12 81 5 344 -12 415 -4 17 -12 50 -18
75 -16 69 -31 101 -41 87 -4 -7 -5 0 -2 14 5 20 -7 55 -44 133 -27 58 -55 106
-61 106 -6 0 -8 4 -5 10 8 13 -85 148 -106 155 -9 3 -19 15 -22 26 -3 12 -10
18 -16 14 -6 -3 -9 0 -6 7 2 7 -3 22 -13 33 -45 52 -254 217 -302 239 -14 6
-27 13 -30 17 -6 7 -137 70 -154 74 -6 1 -24 7 -41 14 -16 7 -55 18 -87 26
-31 7 -60 15 -65 18 -5 3 -31 9 -59 12 -27 4 -65 9 -84 12 -98 13 -289 10
-380 -7z m-280 -110 c0 -5 -2 -10 -4 -10 -3 0 -8 5 -11 10 -3 6 -1 10 4 10 6
0 11 -4 11 -10z m-250 -124 c0 -2 -8 -10 -17 -17 -16 -13 -17 -12 -4 4 13 16
21 21 21 13z m1660 -126 c0 -5 -2 -10 -4 -10 -3 0 -8 5 -11 10 -3 6 -1 10 4
10 6 0 11 -4 11 -10z m145 -170 c-3 -5 -12 -10 -18 -10 -7 0 -6 4 3 10 19 12
23 12 15 0z m99 -185 c-4 -8 -8 -15 -10 -15 -2 0 -4 7 -4 15 0 8 4 15 10 15 5
0 7 -7 4 -15z m163 -407 c-3 -8 -6 -5 -6 6 -1 11 2 17 5 13 3 -3 4 -12 1 -19z
m-2330 -336 c7 -8 18 -23 24 -34 6 -11 17 -17 24 -14 9 3 12 0 9 -8 -3 -7 7
-25 21 -40 14 -15 33 -39 41 -52 9 -13 21 -21 27 -17 5 3 7 1 3 -5 -14 -23
160 -174 274 -238 19 -10 40 -23 47 -29 6 -5 28 -21 48 -35 20 -14 49 -37 64
-52 16 -15 32 -24 36 -20 5 4 5 1 1 -6 -5 -7 -2 -21 6 -30 8 -9 15 -30 17 -47
1 -16 11 -50 22 -74 10 -24 19 -48 19 -52 0 -17 42 -99 49 -95 3 2 6 -6 7 -17
0 -12 9 -44 20 -70 14 -36 16 -52 8 -65 -17 -26 -85 -27 -151 -2 -31 11 -62
19 -70 16 -8 -3 -12 -2 -9 3 3 5 -8 14 -25 21 -17 7 -36 18 -43 24 -6 6 -33
22 -59 36 -27 14 -57 33 -68 43 -10 10 -24 15 -29 12 -6 -4 -9 -3 -8 2 1 4
-39 49 -90 100 -50 50 -113 122 -139 160 -50 73 -152 268 -154 293 0 10 -3 9
-10 -5 -8 -17 -8 -16 -4 7 3 15 0 39 -7 55 -6 15 -12 30 -13 33 -31 102 -51
213 -56 314 -3 41 0 50 16 56 15 5 31 -10 79 -74 33 -45 66 -87 73 -94z m2320
-64 c-3 -8 -6 -5 -6 6 -1 11 2 17 5 13 3 -3 4 -12 1 -19z m-2500 -290 c-3 -8
-6 -5 -6 6 -1 11 2 17 5 13 3 -3 4 -12 1 -19z m1288 -258 c-3 -5 -23 -9 -43
-9 l-37 2 40 7 c22 4 41 8 43 9 2 0 0 -3 -3 -9z m-88 -6 c-3 -3 -12 -4 -19 -1
-8 3 -5 6 6 6 11 1 17 -2 13 -5z m178 -12 c-3 -3 -11 0 -18 7 -9 10 -8 11 6 5
10 -3 15 -9 12 -12z m-42 -18 c65 -8 126 -19 135 -24 10 -5 43 -16 74 -25 86
-23 150 -85 163 -158 7 -35 4 -41 -34 -77 -23 -22 -49 -40 -57 -40 -8 0 -12
-4 -9 -10 3 -5 0 -8 -7 -5 -7 3 -38 -2 -68 -10 -125 -36 -250 -56 -350 -58
l-105 -2 -26 54 c-28 57 -47 172 -50 296 -1 39 -1 74 0 79 1 11 173 1 334 -20z
m-456 -6 c-3 -8 -6 -5 -6 6 -1 11 2 17 5 13 3 -3 4 -12 1 -19z m763 -58 c0 -5
-2 -10 -4 -10 -3 0 -8 5 -11 10 -3 6 -1 10 4 10 6 0 11 -4 11 -10z m-763 -42
c-3 -8 -6 -5 -6 6 -1 11 2 17 5 13 3 -3 4 -12 1 -19z m-492 -108 c3 -5 2 -10
-4 -10 -5 0 -13 5 -16 10 -3 6 -2 10 4 10 5 0 13 -4 16 -10z m1465 -144 c0 -3
-4 -8 -10 -11 -5 -3 -10 -1 -10 4 0 6 5 11 10 11 6 0 10 -2 10 -4z m-1073 -82
c-3 -3 -12 -4 -19 -1 -8 3 -5 6 6 6 11 1 17 -2 13 -5z m66 -21 c-7 -2 -19 -2
-25 0 -7 3 -2 5 12 5 14 0 19 -2 13 -5z m274 -69 c-3 -3 -12 -4 -19 -1 -8 3
-5 6 6 6 11 1 17 -2 13 -5z"/>
</g>
</svg>
